<svg width="238" height="107" viewBox="0 0 238 107" fill="none" xmlns="http://www.w3.org/2000/svg">
<g clip-path="url(#clip0_104_178)">
<path d="M150.421 59.6846H70.8433V107H150.421V59.6846Z" fill="#00E0A1"/>
<path d="M154.859 54.1499H76.5502C76.2979 54.1502 76.0561 54.2378 75.8778 54.3935C75.6994 54.5492 75.599 54.7602 75.5986 54.9804V101.189C75.5986 101.298 75.6232 101.406 75.6711 101.506C75.7189 101.607 75.789 101.699 75.8773 101.776C75.9657 101.853 76.0706 101.914 76.186 101.956C76.3015 101.998 76.4252 102.019 76.5502 102.019H154.859C154.984 102.019 155.108 101.998 155.223 101.956C155.339 101.914 155.444 101.853 155.532 101.776C155.62 101.699 155.691 101.607 155.738 101.506C155.786 101.406 155.811 101.298 155.811 101.189V54.9804C155.81 54.7602 155.71 54.5492 155.532 54.3935C155.353 54.2378 155.112 54.1502 154.859 54.1499ZM155.176 101.189C155.177 101.225 155.168 101.261 155.153 101.295C155.137 101.328 155.113 101.359 155.084 101.385C155.054 101.41 155.019 101.431 154.981 101.445C154.942 101.458 154.901 101.466 154.859 101.465H76.5502C76.5085 101.466 76.4672 101.458 76.4286 101.445C76.3901 101.431 76.3551 101.41 76.3256 101.385C76.2961 101.359 76.2728 101.328 76.2569 101.295C76.241 101.261 76.2329 101.225 76.233 101.189V54.9804C76.2331 54.907 76.2666 54.8366 76.326 54.7847C76.3855 54.7328 76.4661 54.7037 76.5502 54.7035H154.859C154.943 54.7037 155.024 54.7328 155.083 54.7847C155.143 54.8366 155.176 54.907 155.176 54.9804V101.189Z" fill="#3F3D56"/>
<path d="M115.083 86.8008H80.1833C79.9275 86.8008 79.7202 86.9817 79.7202 87.2049V89.9937C79.7202 90.2169 79.9275 90.3978 80.1833 90.3978H115.083C115.339 90.3978 115.546 90.2169 115.546 89.9937V87.2049C115.546 86.9817 115.339 86.8008 115.083 86.8008Z" fill="#3F3D56"/>
<path d="M148.201 83.7573H136.789C136.664 83.7573 136.54 83.7788 136.425 83.8205C136.309 83.8623 136.204 83.9234 136.116 84.0005C136.028 84.0777 135.958 84.1692 135.91 84.27C135.862 84.3707 135.837 84.4787 135.837 84.5878V92.3346C135.837 92.4437 135.862 92.5517 135.91 92.6525C135.958 92.7532 136.028 92.8448 136.116 92.9219C136.204 92.999 136.309 93.0602 136.425 93.1019C136.54 93.1436 136.664 93.1651 136.789 93.1651H148.201C148.326 93.1651 148.449 93.1436 148.565 93.1019C148.68 93.0602 148.785 92.999 148.873 92.9219C148.962 92.8448 149.032 92.7532 149.08 92.6525C149.127 92.5517 149.152 92.4437 149.152 92.3346V84.5878C149.152 84.4787 149.127 84.3707 149.08 84.27C149.032 84.1692 148.962 84.0777 148.873 84.0005C148.785 83.9234 148.68 83.8623 148.565 83.8205C148.449 83.7788 148.326 83.7573 148.201 83.7573ZM148.518 92.3346C148.518 92.408 148.484 92.4784 148.425 92.5303C148.365 92.5822 148.285 92.6113 148.201 92.6115H136.789C136.705 92.6113 136.624 92.5821 136.565 92.5303C136.505 92.4784 136.472 92.408 136.472 92.3346V84.5878C136.472 84.5514 136.48 84.5154 136.496 84.4817C136.512 84.4481 136.535 84.4175 136.564 84.3918C136.594 84.3661 136.629 84.3457 136.667 84.3318C136.706 84.3179 136.747 84.3108 136.789 84.311H148.201C148.242 84.3108 148.284 84.3179 148.322 84.3318C148.361 84.3457 148.396 84.3661 148.425 84.3918C148.455 84.4175 148.478 84.4481 148.494 84.4817C148.51 84.5154 148.518 84.5514 148.518 84.5878V92.3346Z" fill="#3F3D56"/>
<path d="M145.922 85.5449H139.068C138.812 85.5449 138.605 85.7258 138.605 85.949V86.5456C138.605 86.7688 138.812 86.9497 139.068 86.9497H145.922C146.177 86.9497 146.385 86.7688 146.385 86.5456V85.949C146.385 85.7258 146.177 85.5449 145.922 85.5449Z" fill="#3F3D56"/>
<path d="M145.922 87.7588H139.068C138.812 87.7588 138.605 87.9397 138.605 88.1629V88.7594C138.605 88.9826 138.812 89.1636 139.068 89.1636H145.922C146.177 89.1636 146.385 88.9826 146.385 88.7594V88.1629C146.385 87.9397 146.177 87.7588 145.922 87.7588Z" fill="#3F3D56"/>
<path d="M145.922 89.9722H139.068C138.812 89.9722 138.605 90.1531 138.605 90.3763V90.9728C138.605 91.196 138.812 91.3769 139.068 91.3769H145.922C146.177 91.3769 146.385 91.196 146.385 90.9728V90.3763C146.385 90.1531 146.177 89.9722 145.922 89.9722Z" fill="#3F3D56"/>
<path d="M96.6946 57.4712H81.1344C80.8787 57.4712 80.6714 57.6521 80.6714 57.8753V63.1544C80.6714 63.3776 80.8787 63.5585 81.1344 63.5585H96.6946C96.9503 63.5585 97.1576 63.3776 97.1576 63.1544V57.8753C97.1576 57.6521 96.9503 57.4712 96.6946 57.4712Z" fill="#3F3D56"/>
<path d="M90.1828 60.5145C90.1828 61.5842 89.615 62.4514 88.9147 62.4514C88.2143 62.4514 87.6465 61.5842 87.6465 60.5145C87.6465 59.4448 88.9147 58.5776 88.9147 58.5776C88.9147 58.5776 90.1828 59.4448 90.1828 60.5145Z" fill="#00E0A1"/>
<path d="M208.828 32.7002H208.365V77.8828H155.811V78.2869H208.828V32.7002Z" fill="#3F3D56"/>
<path d="M70.8431 78.2869H17.8252V32.7002H18.2882V77.8828H70.8431V78.2869Z" fill="#3F3D56"/>
<path d="M237.852 7.63967H237.555V7.18647H237.778C237.817 7.18647 237.855 7.17283 237.882 7.14854C237.91 7.12426 237.926 7.09132 237.926 7.05698V4.72624C237.926 4.6919 237.91 4.65896 237.882 4.63468C237.855 4.6104 237.817 4.59675 237.778 4.59675H237.555V3.27308C237.555 2.90277 237.471 2.53608 237.309 2.19396C237.147 1.85183 236.909 1.54097 236.609 1.27912C236.309 1.01726 235.952 0.809555 235.56 0.667844C235.168 0.526133 234.748 0.453199 234.324 0.453202H233.994V0.129485C233.994 0.0951439 233.979 0.0622088 233.951 0.0379256C233.923 0.0136425 233.885 5.35872e-07 233.846 0H231.175C231.136 5.35872e-07 231.098 0.0136425 231.07 0.0379256C231.042 0.0622088 231.027 0.0951439 231.027 0.129485V0.453202H182.775C182.35 0.453199 181.93 0.526133 181.538 0.667844C181.146 0.809555 180.79 1.01726 180.49 1.27912C180.19 1.54097 179.952 1.85183 179.789 2.19396C179.627 2.53608 179.543 2.90277 179.543 3.27308V63.2826C179.543 63.6529 179.627 64.0196 179.789 64.3618C179.952 64.7039 180.19 65.0148 180.49 65.2766C180.79 65.5385 181.146 65.7462 181.538 65.8879C181.93 66.0296 182.35 66.1025 182.775 66.1025H234.324C234.748 66.1025 235.168 66.0296 235.56 65.8879C235.952 65.7462 236.309 65.5385 236.609 65.2766C236.909 65.0148 237.147 64.7039 237.309 64.3618C237.471 64.0196 237.555 63.6529 237.555 63.2826V10.2294H237.852C237.891 10.2294 237.929 10.2157 237.957 10.1915C237.984 10.1672 238 10.1342 238 10.0999V7.76916C238 7.75215 237.996 7.73531 237.989 7.7196C237.981 7.70389 237.97 7.68962 237.957 7.67759C237.943 7.66557 237.927 7.65603 237.909 7.64953C237.891 7.64302 237.871 7.63967 237.852 7.63967Z" fill="#3F3D56"/>
<path d="M234.889 2.29785H182.655C182.411 2.29785 182.214 2.47017 182.214 2.68273V63.4201C182.214 63.6326 182.411 63.8049 182.655 63.8049H234.889C235.132 63.8049 235.33 63.6326 235.33 63.4201V2.68273C235.33 2.47017 235.132 2.29785 234.889 2.29785Z" fill="#D0CDE1"/>
<path d="M211.321 32.4419H203.135C202.88 32.4419 202.672 32.6228 202.672 32.846V34.3944C202.672 34.6175 202.88 34.7985 203.135 34.7985H211.321C211.577 34.7985 211.784 34.6175 211.784 34.3944V32.846C211.784 32.6228 211.577 32.4419 211.321 32.4419Z" fill="#3F3D56"/>
<path d="M222.337 14.0942H192.119C191.864 14.0942 191.656 14.2752 191.656 14.4984V14.7001C191.656 14.9233 191.864 15.1042 192.119 15.1042H222.337C222.592 15.1042 222.8 14.9233 222.8 14.7001V14.4984C222.8 14.2752 222.592 14.0942 222.337 14.0942Z" fill="#3F3D56"/>
<path d="M222.337 17.2925H192.119C191.864 17.2925 191.656 17.4734 191.656 17.6966V17.8983C191.656 18.1215 191.864 18.3024 192.119 18.3024H222.337C222.592 18.3024 222.8 18.1215 222.8 17.8983V17.6966C222.8 17.4734 222.592 17.2925 222.337 17.2925Z" fill="#3F3D56"/>
<path d="M222.337 20.4907H192.119C191.864 20.4907 191.656 20.6717 191.656 20.8948V21.0966C191.656 21.3198 191.864 21.5007 192.119 21.5007H222.337C222.592 21.5007 222.8 21.3198 222.8 21.0966V20.8948C222.8 20.6717 222.592 20.4907 222.337 20.4907Z" fill="#3F3D56"/>
<path d="M222.337 23.689H192.119C191.864 23.689 191.656 23.8699 191.656 24.0931V24.2948C191.656 24.518 191.864 24.6989 192.119 24.6989H222.337C222.592 24.6989 222.8 24.518 222.8 24.2948V24.0931C222.8 23.8699 222.592 23.689 222.337 23.689Z" fill="#3F3D56"/>
<path d="M222.337 26.8872H192.119C191.864 26.8872 191.656 27.0681 191.656 27.2913V27.4931C191.656 27.7162 191.864 27.8972 192.119 27.8972H222.337C222.592 27.8972 222.8 27.7162 222.8 27.4931V27.2913C222.8 27.0681 222.592 26.8872 222.337 26.8872Z" fill="#3F3D56"/>
<path d="M206.125 61.3764C211.468 61.3764 215.798 57.5968 215.798 52.9345C215.798 48.2722 211.468 44.4927 206.125 44.4927C200.783 44.4927 196.453 48.2722 196.453 52.9345C196.453 57.5968 200.783 61.3764 206.125 61.3764Z" fill="#00E0A1"/>
<path d="M208.977 59.4455C206.578 59.4455 204.233 58.8248 202.239 57.6618C200.245 56.4988 198.69 54.8458 197.772 52.9118C196.854 50.9778 196.614 48.8497 197.082 46.7966C197.55 44.7435 198.705 42.8576 200.401 41.3774C202.097 39.8971 204.258 38.8891 206.611 38.4807C208.963 38.0723 211.402 38.2819 213.618 39.083C215.834 39.8841 217.728 41.2407 219.06 42.9812C220.393 44.7218 221.104 46.7681 221.104 48.8614C221.1 51.6675 219.821 54.3578 217.548 56.342C215.274 58.3262 212.192 59.4424 208.977 59.4455ZM208.977 38.6622C206.665 38.6622 204.406 39.2604 202.484 40.3811C200.562 41.5018 199.064 43.0947 198.18 44.9584C197.295 46.822 197.064 48.8728 197.515 50.8512C197.966 52.8297 199.079 54.647 200.713 56.0734C202.347 57.4998 204.43 58.4711 206.697 58.8647C208.964 59.2582 211.313 59.0562 213.449 58.2843C215.584 57.5123 217.409 56.2051 218.693 54.5278C219.978 52.8506 220.663 50.8787 220.663 48.8614C220.66 46.1574 219.427 43.5649 217.236 41.6529C215.045 39.7408 212.075 38.6653 208.977 38.6622Z" fill="#3F3D56"/>
<path d="M35.9994 17.7629H35.6027V8.27875C35.6027 7.55789 35.44 6.8441 35.1239 6.17812C34.8079 5.51214 34.3446 4.90701 33.7605 4.39729C33.1765 3.88757 32.4831 3.48324 31.72 3.20739C30.9569 2.93153 30.139 2.78955 29.3131 2.78955H6.28961C5.46365 2.78955 4.64577 2.93153 3.88268 3.20739C3.11959 3.48324 2.42623 3.88757 1.84218 4.39729C1.25814 4.90701 0.79485 5.51214 0.478768 6.17812C0.162685 6.8441 -9.12106e-07 7.55789 0 8.27875V60.3097C-9.12109e-07 61.0306 0.162685 61.7444 0.478768 62.4104C0.794851 63.0764 1.25814 63.6815 1.84219 64.1912C2.42623 64.7009 3.1196 65.1053 3.88269 65.3811C4.64578 65.657 5.46366 65.7989 6.28962 65.7989H29.3131C30.1391 65.7989 30.9569 65.657 31.72 65.3811C32.4831 65.1053 33.1765 64.7009 33.7605 64.1912C34.3446 63.6815 34.8079 63.0764 35.1239 62.4104C35.44 61.7444 35.6027 61.0306 35.6027 60.3097V24.5139H35.9994V17.7629Z" fill="#3F3D56"/>
<path d="M34.2631 8.60158V60.5567C34.2633 61.6439 33.7687 62.6867 32.8879 63.4556C32.0072 64.2245 30.8125 64.6566 29.5668 64.6568H6.43215C5.18639 64.6566 3.99175 64.2245 3.11102 63.4556C2.23029 62.6867 1.73562 61.6439 1.73584 60.5567V8.60158C1.73597 7.51458 2.2308 6.47214 3.11151 5.70352C3.99221 4.9349 5.18665 4.50304 6.43215 4.50293H9.23892C9.10079 4.79863 9.04811 5.11944 9.08551 5.43709C9.1229 5.75475 9.24923 6.0595 9.45337 6.32451C9.65751 6.58952 9.93319 6.80665 10.2561 6.95678C10.5791 7.1069 10.9393 7.18541 11.3052 7.18539H24.4953C24.8612 7.18541 25.2214 7.10691 25.5444 6.95679C25.8673 6.80666 26.143 6.58953 26.3471 6.32452C26.5513 6.05951 26.6776 5.75475 26.715 5.43709C26.7524 5.11944 26.6997 4.79863 26.5616 4.50293H29.5668C30.8123 4.50305 32.0067 4.93491 32.8874 5.70353C33.7681 6.47215 34.263 7.51458 34.2631 8.60158Z" fill="#D0CDE1"/>
<path d="M20.6352 35.1118H15.3639C15.1082 35.1118 14.9009 35.2927 14.9009 35.5159V36.3105C14.9009 36.5337 15.1082 36.7146 15.3639 36.7146H20.6352C20.891 36.7146 21.0983 36.5337 21.0983 36.3105V35.5159C21.0983 35.2927 20.891 35.1118 20.6352 35.1118Z" fill="#3F3D56"/>
<path d="M28.1973 22.6328H7.80224C7.58489 22.6328 7.40869 22.7866 7.40869 22.9763C7.40869 23.166 7.58489 23.3197 7.80224 23.3197H28.1973C28.4147 23.3197 28.5909 23.166 28.5909 22.9763C28.5909 22.7866 28.4147 22.6328 28.1973 22.6328Z" fill="#3F3D56"/>
<path d="M28.1973 24.8081H7.80224C7.58489 24.8081 7.40869 24.9619 7.40869 25.1516C7.40869 25.3413 7.58489 25.495 7.80224 25.495H28.1973C28.4147 25.495 28.5909 25.3413 28.5909 25.1516C28.5909 24.9619 28.4147 24.8081 28.1973 24.8081Z" fill="#3F3D56"/>
<path d="M28.1973 26.9834H7.80224C7.58489 26.9834 7.40869 27.1372 7.40869 27.3269C7.40869 27.5166 7.58489 27.6703 7.80224 27.6703H28.1973C28.4147 27.6703 28.5909 27.5166 28.5909 27.3269C28.5909 27.1372 28.4147 26.9834 28.1973 26.9834Z" fill="#3F3D56"/>
<path d="M28.1973 29.1587H7.80224C7.58489 29.1587 7.40869 29.3125 7.40869 29.5022C7.40869 29.6918 7.58489 29.8456 7.80224 29.8456H28.1973C28.4147 29.8456 28.5909 29.6918 28.5909 29.5022C28.5909 29.3125 28.4147 29.1587 28.1973 29.1587Z" fill="#3F3D56"/>
<path d="M28.1973 31.334H7.80224C7.58489 31.334 7.40869 31.4878 7.40869 31.6774C7.40869 31.8671 7.58489 32.0209 7.80224 32.0209H28.1973C28.4147 32.0209 28.5909 31.8671 28.5909 31.6774C28.5909 31.4878 28.4147 31.334 28.1973 31.334Z" fill="#3F3D56"/>
<path d="M16.1776 57.6197C19.8617 57.6197 22.8483 55.0132 22.8483 51.7979C22.8483 48.5826 19.8617 45.9761 16.1776 45.9761C12.4934 45.9761 9.50684 48.5826 9.50684 51.7979C9.50684 55.0132 12.4934 57.6197 16.1776 57.6197Z" fill="#00E0A1"/>
<path d="M18.1433 56.2889C16.4892 56.2889 14.8722 55.8608 13.4968 55.0587C12.1214 54.2567 11.0494 53.1167 10.4164 51.7829C9.78341 50.4492 9.61778 48.9816 9.94049 47.5656C10.2632 46.1497 11.0597 44.8491 12.2294 43.8283C13.3991 42.8075 14.8893 42.1123 16.5117 41.8307C18.1341 41.549 19.8157 41.6936 21.3439 42.2461C22.8722 42.7985 24.1784 43.7341 25.0974 44.9344C26.0164 46.1348 26.5069 47.546 26.5069 48.9896C26.5044 50.9248 25.6224 52.7802 24.0545 54.1485C22.4866 55.5169 20.3607 56.2867 18.1433 56.2889ZM18.1433 41.9559C16.5493 41.9559 14.9911 42.3684 13.6658 43.1413C12.3404 43.9142 11.3074 45.0127 10.6974 46.2979C10.0874 47.5832 9.92781 48.9975 10.2388 50.3619C10.5498 51.7263 11.3173 52.9796 12.4445 53.9633C13.5716 54.947 15.0077 55.6169 16.571 55.8883C18.1344 56.1597 19.7549 56.0204 21.2276 55.488C22.7002 54.9556 23.9589 54.0541 24.8445 52.8974C25.7301 51.7407 26.2028 50.3808 26.2028 48.9896C26.2004 47.1248 25.3505 45.337 23.8396 44.0183C22.3287 42.6997 20.2801 41.958 18.1433 41.9559Z" fill="#3F3D56"/>
<path d="M40.6329 75.8096H34.1504V81.4671H40.6329V75.8096Z" fill="#D0CDE1"/>
<path d="M44.5684 78.2341H36.6968V71.3643H44.5684V78.2341ZM37.039 77.9354H44.2262V71.663H37.039V77.9354Z" fill="#3F3D56"/>
<path d="M185.796 75.8096H179.313V81.4671H185.796V75.8096Z" fill="#D0CDE1"/>
<path d="M189.731 78.2341H181.859V71.3643H189.731V78.2341ZM182.202 77.9354H189.389V71.663H182.202V77.9354Z" fill="#3F3D56"/>
</g>
<defs>
<clipPath id="clip0_104_178">
<rect width="238" height="107" fill="white"/>
</clipPath>
</defs>
</svg>
