<svg width="215" height="173" viewBox="0 0 215 173" fill="none" xmlns="http://www.w3.org/2000/svg">
<g clip-path="url(#clip0_104_152)">
<path d="M122.481 153.049C120.995 150.971 118.982 149.451 116.452 148.882C114.246 148.386 111.977 148.471 109.735 148.488L81.3769 148.706C78.9482 148.725 76.6196 150.825 76.7325 153.341C76.8444 155.837 78.7736 157.996 81.3769 157.976C89.6837 157.912 97.9906 157.849 106.297 157.785C108.256 157.77 110.215 157.734 112.174 157.741C112.614 157.742 113.051 157.765 113.491 157.77C113.597 157.771 113.674 157.771 113.728 157.768C113.742 157.772 113.753 157.776 113.771 157.781C114 157.844 114.236 157.887 114.466 157.947C114.385 157.949 114.616 158.093 114.731 158.141C114.747 158.172 114.781 158.228 114.838 158.314C114.917 158.461 115.15 158.91 115.16 158.896C115.511 159.782 115.801 160.691 116.027 161.617C116.567 163.658 116.685 164.085 116.763 166.001C116.861 168.42 118.829 170.751 121.407 170.636C123.84 170.527 126.157 168.596 126.052 166.001C125.874 161.628 125.105 156.716 122.481 153.049Z" fill="#E6E6E6"/>
<path d="M83.0441 163.509C82.5114 160.287 81.989 157.064 81.446 153.845C80.8951 150.578 79.7698 147.588 77.2231 145.444C76.5426 144.871 75.8371 144.337 75.1285 143.804C74.8794 143.616 74.6306 143.429 74.3844 143.237C74.3697 143.226 74.3603 143.218 74.3476 143.208C74.3205 143.185 74.288 143.158 74.2444 143.121C73.1829 142.224 72.1573 141.288 71.1803 140.292C70.3128 139.408 69.4831 138.487 68.6913 137.527C68.4934 137.288 68.2981 137.046 68.1054 136.802C68.0722 136.76 67.8936 136.53 67.776 136.379C67.6665 136.229 67.4666 135.957 67.433 135.91C67.2078 135.592 66.9866 135.271 66.7694 134.947C65.2901 132.736 64.0092 130.398 62.9415 127.961C62.8356 127.72 62.7323 127.477 62.6314 127.232C62.6043 127.157 62.5693 127.062 62.5228 126.934C62.3077 126.344 62.0929 125.754 61.8962 125.156C61.4782 123.887 61.1189 122.599 60.8182 121.293C60.6695 120.648 60.5356 119.999 60.4166 119.348C60.3552 119.012 60.2978 118.677 60.2444 118.34C60.2356 118.284 60.1835 117.921 60.1527 117.716C60.13 117.51 60.0878 117.145 60.0821 117.088C60.0481 116.749 60.0179 116.41 59.9916 116.07C59.9322 115.305 59.892 114.539 59.8711 113.771C59.8354 112.408 59.8599 111.044 59.9445 109.68C59.9927 108.914 60.0613 108.15 60.1458 107.387C60.1509 107.34 60.1548 107.303 60.1585 107.27C60.1636 107.236 60.1696 107.197 60.1767 107.149C60.2392 106.727 60.3049 106.306 60.3785 105.887C60.6571 104.293 61.0194 102.716 61.4639 101.161C61.6744 100.425 61.903 99.6955 62.1498 98.9719C62.2598 98.6507 62.3733 98.3307 62.4902 98.0119C62.4826 98.0325 62.8334 97.1383 62.8381 97.1082C64.2299 93.8262 66.5065 90.8343 66.5096 87.106C66.5117 84.5818 64.3719 82.1638 61.8652 82.2804C60.6154 82.3274 59.4326 82.8567 58.5663 83.7569C57.6999 84.6571 57.2175 85.8578 57.2208 87.106C57.2208 87.1627 57.2205 87.2111 57.2203 87.258C57.197 87.3366 57.1774 87.4022 57.1598 87.4601C56.8884 88.0488 56.5559 88.6082 56.258 89.1822C55.4421 90.7534 54.7458 92.3761 54.0843 94.0226C53.0014 96.7039 52.1725 99.4805 51.6084 102.316C50.3825 108.529 50.2873 114.911 51.3275 121.158C53.1283 132.112 59.0667 142.598 67.3226 149.647C68.0391 150.258 68.773 150.849 69.5138 151.429C69.8204 151.668 70.1295 151.903 70.4402 152.137C70.587 152.248 71.1954 152.726 70.9278 152.494C71.5032 152.985 71.7454 153.231 71.8933 153.592C71.9147 153.675 71.9439 153.788 71.9834 153.943C72.0876 154.35 72.1865 154.756 72.2687 155.169C72.9873 158.776 73.4868 162.444 74.0871 166.074C74.4997 168.569 77.5768 170.192 79.8003 169.445C82.3884 168.575 83.4862 166.182 83.0441 163.509Z" fill="#E6E6E6"/>
<path d="M122.951 172.865C121.001 172.87 119.128 172.102 117.743 170.731C116.359 169.36 115.576 167.496 115.567 165.55V160.262C110.02 160.882 91.0258 160.738 85.5812 159.865V165.338C85.5666 167.283 84.7821 169.144 83.3988 170.514C82.0155 171.884 80.1455 172.653 78.1965 172.653C76.2475 172.653 74.3776 171.884 72.9943 170.514C71.6109 169.144 70.8265 167.283 70.8119 165.338V154.593C63.4376 150.504 57.2901 144.526 53.0039 137.275C48.7176 130.024 46.4478 121.762 46.4287 113.343C46.4287 98.9077 52.984 85.4413 64.4138 76.3972C71.8454 70.4969 80.8746 66.9484 90.342 66.2076C91.627 66.107 92.9199 66.0561 94.1849 66.0561C98.6413 66.0561 118.748 66.7431 123.792 68.1916L135.295 56.8002C135.464 56.6305 135.68 56.5148 135.916 56.4681C136.151 56.4213 136.395 56.4455 136.616 56.5375C136.839 56.6261 137.03 56.7799 137.164 56.9788C137.298 57.1777 137.368 57.4123 137.366 57.6519V59.4631L139.606 57.2492C139.775 57.0793 139.991 56.9635 140.226 56.9166C140.461 56.8697 140.705 56.8939 140.926 56.9861C141.149 57.0746 141.34 57.2285 141.474 57.4274C141.608 57.6264 141.679 57.8612 141.677 58.1009V78.3405C147.449 83.5337 151.848 90.0678 154.485 97.3636C157.122 104.659 157.914 112.492 156.793 120.166C155.671 127.841 152.67 135.121 148.055 141.361C143.44 147.601 137.354 152.609 130.336 155.941V165.55C130.326 167.496 129.543 169.36 128.159 170.731C126.775 172.102 124.902 172.87 122.951 172.865ZM116.147 159.605V165.55C116.162 167.341 116.885 169.054 118.16 170.316C119.434 171.577 121.156 172.285 122.951 172.285C124.746 172.285 126.468 171.577 127.743 170.316C129.017 169.054 129.741 167.341 129.755 165.55V155.575L129.921 155.496C137.795 151.767 144.48 145.933 149.233 138.641C155.29 129.336 157.809 118.175 156.334 107.178C154.859 96.1803 149.488 86.073 141.193 78.6854L141.096 78.5989V58.1009C141.098 57.9763 141.062 57.8542 140.993 57.7508C140.923 57.6474 140.823 57.5678 140.707 57.5228C140.591 57.4734 140.463 57.4601 140.34 57.4846C140.217 57.509 140.104 57.5701 140.016 57.6598L136.786 60.8524V57.6519C136.788 57.5274 136.752 57.4052 136.682 57.3018C136.612 57.1984 136.513 57.1189 136.396 57.0738C136.28 57.0245 136.152 57.0113 136.029 57.036C135.905 57.0606 135.792 57.1219 135.704 57.2118L123.955 68.8471L123.788 68.7949C119.098 67.33 98.6751 66.6355 94.1848 66.6355C92.9349 66.6355 91.6573 66.6858 90.3876 66.7853C81.0353 67.517 72.1157 71.0224 64.7746 76.8511C53.4844 85.7848 47.0092 99.0857 47.0092 113.343C47.0285 121.688 49.2862 129.875 53.5477 137.054C57.8092 144.233 63.9191 150.143 71.2427 154.169L71.3924 154.252V165.338C71.4074 167.129 72.1308 168.842 73.4052 170.103C74.6796 171.365 76.4017 172.072 78.1965 172.072C79.9913 172.072 81.7134 171.365 82.9878 170.103C84.2622 168.842 84.9857 167.129 85.0006 165.338V159.172L85.3446 159.236C90.2374 160.155 110.84 160.3 115.819 159.648L116.147 159.605Z" fill="#3F3D56"/>
<path d="M83.5987 34.5083L51.4536 44.1494C50.4311 44.4573 49.573 45.1576 49.0676 46.0966C48.5623 47.0355 48.451 48.1363 48.7584 49.157C49.0657 50.1777 49.7665 51.035 50.7067 51.5404C51.647 52.0458 52.7498 52.158 53.7729 51.8524L81.9034 43.4136L82.4928 43.2368C82.612 40.2062 83.4358 37.2447 84.8991 34.5865C84.7155 34.504 84.5192 34.4531 84.3186 34.4358C84.0762 34.4124 83.8316 34.437 83.5987 34.5083Z" fill="#00E0A1"/>
<path d="M53.2168 53.9076C52.7901 53.9066 52.3745 53.7717 52.0288 53.5221C51.683 53.2726 51.4246 52.9208 51.29 52.5167L49.2799 46.4632C49.196 46.2104 49.1627 45.9436 49.1821 45.6779C49.2015 45.4123 49.2731 45.1531 49.3929 44.9151C49.5127 44.6771 49.6782 44.465 49.8802 44.2909C50.0821 44.1168 50.3164 43.9841 50.5697 43.9003L76.7326 35.247C76.9859 35.1633 77.2532 35.1301 77.5193 35.1494C77.7855 35.1687 78.0452 35.2401 78.2836 35.3596C78.5221 35.4791 78.7346 35.6443 78.9091 35.8458C79.0836 36.0473 79.2166 36.2811 79.3006 36.5338L81.3107 42.5874C81.4779 43.0853 81.4444 43.6286 81.2172 44.1022C80.99 44.5759 80.587 44.9427 80.0935 45.1249C80.0694 45.134 80.0449 45.1425 80.0203 45.1505L53.858 53.8035C53.6513 53.8723 53.4348 53.9074 53.2168 53.9076Z" fill="#2F2E41"/>
<path d="M102.214 23.7573C96.9339 23.7594 91.8615 25.8119 88.0706 29.4805C84.2798 33.1492 82.0681 38.1459 81.9037 43.4133C81.8979 43.619 81.895 43.8276 81.895 44.0361C81.895 48.0469 83.0867 51.9676 85.3194 55.3024C87.5521 58.6373 90.7256 61.2364 94.4384 62.7713C98.1513 64.3062 102.237 64.7078 106.178 63.9253C110.12 63.1428 113.741 61.2115 116.582 58.3754C119.424 55.5394 121.359 51.926 122.143 47.9923C122.927 44.0586 122.525 39.9812 120.987 36.2758C119.449 32.5703 116.845 29.4032 113.503 27.1749C110.162 24.9467 106.233 23.7573 102.214 23.7573ZM102.214 63.7355C96.9809 63.7301 91.9635 61.6529 88.2629 57.9597C84.5624 54.2665 82.481 49.2591 82.4756 44.0361C82.4756 43.7667 82.4814 43.5002 82.493 43.2366C82.6502 39.3777 83.9405 35.6502 86.2034 32.5173C88.4663 29.3845 91.602 26.9846 95.2207 25.6161C98.8393 24.2476 102.781 23.9708 106.556 24.8202C110.331 25.6697 113.773 27.6078 116.453 30.3936C119.133 33.1794 120.933 36.69 121.63 40.4888C122.327 44.2877 121.89 48.2072 120.373 51.76C118.856 55.3128 116.325 58.3421 113.097 60.4713C109.868 62.6005 106.084 63.7357 102.214 63.7355Z" fill="#3F3D56"/>
<path d="M119.34 44.0364C119.34 48.5695 117.536 52.917 114.324 56.1224C111.112 59.3278 106.756 61.1286 102.214 61.1286C97.672 61.1286 93.3158 59.3278 90.1041 56.1224C86.8923 52.917 85.0879 48.5695 85.0879 44.0364C85.0879 43.4947 85.114 42.9616 85.1633 42.4344C85.576 38.0595 87.6612 34.0112 90.9859 31.1303C94.3107 28.2493 98.6194 26.757 103.018 26.9632C107.416 27.1693 111.566 29.0582 114.605 32.2374C117.645 35.4167 119.34 39.6421 119.34 44.0364Z" fill="#E6E6E6"/>
<path d="M107.314 45.1717C106.899 44.627 106.353 44.1956 105.727 43.9173C104.954 43.5923 104.156 43.3307 103.34 43.1352V38.4826C104.594 38.6712 105.769 39.2061 106.734 40.0267L107.68 38.0133C107.136 37.5294 106.511 37.1441 105.834 36.8748C105.083 36.5715 104.296 36.3698 103.491 36.2751V33.917H101.3V36.2983C100.454 36.3932 99.6372 36.6667 98.9051 37.1008C98.2437 37.4915 97.6869 38.0361 97.2823 38.6883C96.8963 39.3247 96.6962 40.0563 96.7048 40.8002C96.6671 41.6064 96.9011 42.4019 97.3695 43.0598C97.8006 43.6294 98.37 44.0801 99.024 44.3693C99.8091 44.7039 100.621 44.9723 101.451 45.1717V49.6302C99.9718 49.5188 98.5626 48.9577 97.413 48.0223L96.4668 50.0386C97.1096 50.569 97.8405 50.9827 98.6264 51.2612C99.4876 51.5687 100.387 51.7559 101.3 51.8174V54.1552H103.491V51.7739C104.709 51.6412 105.85 51.1188 106.745 50.2849C107.14 49.9076 107.451 49.4527 107.66 48.949C107.869 48.4454 107.971 47.9039 107.959 47.3589C107.995 46.5785 107.768 45.8083 107.314 45.1717ZM101.451 42.6427C100.917 42.4811 100.421 42.2152 99.9906 41.8605C99.8203 41.7092 99.6856 41.5222 99.5963 41.3128C99.507 41.1035 99.4652 40.8769 99.474 40.6496C99.4582 40.1336 99.6482 39.6324 100.002 39.2561C100.395 38.8613 100.901 38.599 101.451 38.5058V42.6427ZM104.716 48.8074C104.346 49.1865 103.864 49.4372 103.34 49.523V45.6874C103.841 45.8214 104.309 46.0549 104.716 46.374C104.871 46.5057 104.994 46.6704 105.076 46.856C105.157 47.0416 105.196 47.2432 105.19 47.4459C105.21 47.943 105.041 48.4294 104.716 48.8074Z" fill="#00E0A1"/>
<path d="M54.1499 78.4416C53.7012 78.4409 53.2652 78.2924 52.9096 78.0192C52.5541 77.746 52.2988 77.3634 52.1833 76.9306L51.0889 72.7967C50.9519 72.277 51.027 71.7244 51.2978 71.26C51.5685 70.7956 52.0127 70.4573 52.533 70.3194L87.0586 61.2143C87.5796 61.0786 88.1333 61.1544 88.5984 61.425C89.0636 61.6957 89.4024 62.1392 89.5408 62.6585L90.4679 66.1609L90.2942 66.1744C81.4394 66.8615 72.9672 70.0655 65.8798 75.4073L65.8295 75.4316L54.6654 78.3749C54.4972 78.4192 54.3239 78.4416 54.1499 78.4416Z" fill="#2F2E41"/>
<path d="M48.4319 98.8617C44.3819 98.2645 40.5085 96.8029 37.0757 94.5764C35.3751 93.4742 33.8007 92.1891 32.3808 90.7442C30.9794 89.3176 29.6387 87.6962 28.9446 85.7964C28.2767 84.0387 28.3112 82.0921 29.0408 80.359C29.7604 78.6365 31.135 77.2691 32.8633 76.5566C34.602 75.8646 36.7026 75.7906 38.3946 76.5484C39.201 76.9011 39.8987 77.4616 40.4162 78.1724C40.6568 78.5001 40.8349 78.8691 40.9417 79.2611C41.0408 79.6163 41.0498 79.9906 40.9679 80.3501C40.8687 80.7091 40.6937 81.0427 40.4547 81.3287C40.2157 81.6146 39.9182 81.8462 39.5822 82.0081C38.8426 82.3867 38.0413 82.6306 37.2158 82.7283C36.3856 82.8413 35.193 82.9441 34.5256 82.279C34.3882 82.1474 34.2801 81.9884 34.2084 81.8124C34.1582 81.6775 34.1411 81.5327 34.1584 81.39C34.1486 81.4529 34.1986 81.2531 34.1958 81.2611C34.1852 81.2906 34.1395 81.3626 34.2045 81.252C34.2248 81.2156 34.2474 81.1804 34.2722 81.1468C34.2501 81.1753 34.2016 81.2228 34.2882 81.1413C34.3597 81.0632 34.4516 81.0066 34.5536 80.9778C34.5937 80.9661 34.6345 80.9568 34.6748 80.9458C34.7772 80.9179 34.5727 80.9474 34.6775 80.944C34.7179 80.9427 34.7588 80.9437 34.7991 80.9419C34.9019 80.9373 34.6977 80.9139 34.7962 80.9386C34.8344 80.9482 34.8723 80.9576 34.91 80.9694C34.9919 80.9952 34.852 80.9095 34.9075 80.9736C34.9725 81.0488 34.8392 80.9005 34.9131 80.9733C34.9499 81.0093 34.9846 81.0475 35.017 81.0875C35.1451 81.2138 35.318 81.2846 35.4981 81.2846C35.6782 81.2846 35.8511 81.2138 35.9792 81.0875C36.103 80.9582 36.1721 80.7862 36.1721 80.6074C36.1721 80.4285 36.103 80.2565 35.9792 80.1272C35.3083 79.2971 33.983 79.5022 33.3043 80.2038C32.4387 81.0985 32.7814 82.5165 33.6234 83.2971C34.5766 84.1809 35.9266 84.2424 37.1527 84.0941C38.1889 83.9951 39.1987 83.7103 40.1336 83.2534C41.0625 82.7979 41.789 82.0146 42.1725 81.0552C42.3456 80.5431 42.4078 80.0003 42.3549 79.4624C42.302 78.9246 42.1353 78.4041 41.8658 77.9354C40.7833 75.9043 38.5417 74.863 36.3261 74.6826C35.1854 74.5934 34.0383 74.7309 32.9511 75.0871C31.864 75.4433 30.8584 76.0111 29.9926 76.7577C28.3238 78.257 27.2962 80.3391 27.1223 82.5733C26.9289 84.8898 27.8295 87.1393 29.1424 89.0088C30.5169 90.9082 32.1572 92.6011 34.0131 94.036C37.6414 96.9269 41.8973 98.93 46.4404 99.8852C46.9807 99.9966 47.524 100.092 48.0702 100.171C48.244 100.213 48.4273 100.188 48.5828 100.1C48.7383 100.011 48.8543 99.8675 48.9072 99.697C48.9538 99.5233 48.9301 99.3384 48.8412 99.1821C48.7522 99.0257 48.6052 98.9106 48.4319 98.8616L48.4319 98.8617Z" fill="#3F3D56"/>
<path d="M113.275 69.3481C107.341 69.2645 101.426 69.4148 95.5298 69.799C93.5143 69.9303 91.7705 70.6412 91.7705 71.8361C91.7705 72.8352 93.5004 74.0055 95.5298 73.8733C101.423 73.4892 107.338 73.3389 113.275 73.4224C118.115 73.4906 118.112 69.4162 113.275 69.3481Z" fill="#CCCCCC"/>
<path d="M104.505 73.2206C103.864 73.2206 88.7993 73.1967 88.7993 71.12C88.7993 69.0434 103.864 69.0195 104.505 69.0195C105.146 69.0195 120.21 69.0434 120.21 71.12C120.21 73.1967 105.146 73.2206 104.505 73.2206ZM89.3884 71.12C89.8006 71.7496 95.338 72.6412 104.505 72.6412C113.672 72.6412 119.209 71.7496 119.621 71.12C119.209 70.4905 113.672 69.5989 104.505 69.5989C95.338 69.5989 89.8006 70.4905 89.3884 71.12V71.12Z" fill="#3F3D56"/>
<path d="M152.3 127.814C155.635 127.722 159.785 127.606 162.982 125.275C163.934 124.553 164.717 123.631 165.274 122.575C165.832 121.519 166.151 120.354 166.21 119.162C166.276 117.321 165.609 115.714 164.334 114.638C162.664 113.23 160.225 112.9 157.597 113.671L160.32 93.8124L158.321 93.5391L155.12 116.885L156.789 116.121C158.724 115.235 161.381 114.784 163.031 116.176C163.437 116.54 163.752 116.992 163.954 117.498C164.156 118.003 164.238 118.549 164.194 119.091C164.145 119.978 163.905 120.845 163.491 121.631C163.076 122.418 162.497 123.106 161.792 123.649C159.304 125.463 155.996 125.697 152.244 125.802L152.3 127.814Z" fill="#3F3D56"/>
<path d="M146.773 95.5249H135.908V97.5383H146.773V95.5249Z" fill="#3F3D56"/>
<path d="M59.067 87.7024C58.5833 87.7008 58.116 87.5275 57.7488 87.2134C57.3816 86.8992 57.1384 86.4649 57.0629 85.9881L56.3997 81.7639C56.3168 81.2326 56.4486 80.6902 56.766 80.2558C57.0833 79.8213 57.5605 79.5302 58.0926 79.4465L93.3702 73.9299C93.9026 73.8473 94.446 73.9787 94.8813 74.2955C95.3166 74.6122 95.6082 75.0883 95.6922 75.6194L96.3553 79.8438C96.4382 80.375 96.3065 80.9174 95.9891 81.3519C95.6718 81.7864 95.1947 82.0774 94.6625 82.1612L59.3849 87.6776C59.2797 87.6941 59.1734 87.7023 59.067 87.7024Z" fill="#2F2E41"/>
<path d="M44.4671 38.198C52.6432 38.198 59.2712 31.5832 59.2712 23.4235C59.2712 15.2637 52.6432 8.64893 44.4671 8.64893C36.2911 8.64893 29.6631 15.2637 29.6631 23.4235C29.6631 31.5832 36.2911 38.198 44.4671 38.198Z" fill="#00E0A1"/>
<path d="M52.8491 27.246C53.3223 27.0808 53.7545 26.8165 54.1167 26.4707C54.3564 26.2242 54.5392 25.9284 54.6522 25.6039C54.7653 25.2795 54.8059 24.9343 54.7712 24.5926C54.7511 24.349 54.6748 24.1134 54.5483 23.9041C54.4218 23.6949 54.2485 23.5176 54.042 23.3863C53.5063 23.0575 52.7983 23.0699 52.0836 23.4006L52.0011 17.6333L51.4206 17.6415L51.5176 24.4216L51.9594 24.1323C52.4719 23.7975 53.2081 23.5546 53.7379 23.8798C53.8689 23.9659 53.9782 24.081 54.0574 24.2161C54.1366 24.3513 54.1835 24.5028 54.1944 24.659C54.2189 24.9136 54.188 25.1704 54.1041 25.4121C54.0201 25.6537 53.885 25.8744 53.7079 26.0593C53.0786 26.6824 52.1471 26.8913 51.084 27.0822L51.1869 27.6524C51.752 27.5668 52.3083 27.4307 52.8491 27.246Z" fill="#2F2E41"/>
<path d="M57.9787 17.2285L54.8872 17.6958L54.9741 18.2686L58.0656 17.8013L57.9787 17.2285Z" fill="#2F2E41"/>
<path d="M48.2204 18.7032L45.1289 19.1704L45.2158 19.7432L48.3073 19.2759L48.2204 18.7032Z" fill="#2F2E41"/>
<path d="M54.2505 87.4438C53.7181 87.4427 53.1986 87.2798 52.7613 86.9768C52.3239 86.6738 51.9894 86.2451 51.8022 85.7477L41.5952 58.4672C40.3476 55.1214 40.4808 51.4184 41.9656 48.1705C43.4504 44.9226 46.1654 42.3952 49.5151 41.1426L57.8146 38.0498C58.1355 37.9294 58.4771 37.8735 58.8198 37.8854C59.1624 37.8972 59.4993 37.9766 59.8111 38.1189C60.1221 38.2576 60.4023 38.4568 60.6354 38.7048C60.8684 38.9528 61.0495 39.2447 61.1683 39.5633L80.0758 75.1914C80.1985 75.5127 80.2564 75.855 80.2461 76.1987C80.2358 76.5424 80.1575 76.8806 80.0156 77.194C79.8738 77.5073 79.6713 77.7896 79.4198 78.0246C79.1682 78.2595 78.8726 78.4425 78.5499 78.563L55.1635 87.2782C54.8715 87.3875 54.5623 87.4436 54.2505 87.4438Z" fill="#2F2E41"/>
<path d="M55.2964 38.9881L74.0566 64.0254L61.3624 39.2509C61.2576 38.9618 61.0967 38.6962 60.8889 38.4692C60.6812 38.2422 60.4307 38.0583 60.1518 37.9279C59.8728 37.7975 59.5708 37.7233 59.2631 37.7094C58.9554 37.6955 58.6479 37.7423 58.3583 37.847L55.2964 38.9881Z" fill="#E6E6E6"/>
<path d="M85.0007 58.0026L51.5043 55.8493C50.9763 55.8153 50.4602 55.6779 49.9854 55.4449C49.5106 55.2119 49.0865 54.8879 48.7372 54.4913C48.3879 54.0947 48.1203 53.6333 47.9497 53.1335C47.779 52.6337 47.7087 52.1052 47.7427 51.5783C47.7767 51.0514 47.9144 50.5363 48.1479 50.0625C48.3813 49.5886 48.706 49.1653 49.1034 48.8167C49.5008 48.4681 49.9631 48.2011 50.4639 48.0308C50.9647 47.8605 51.4942 47.7903 52.0222 47.8242L85.5186 49.9774C85.7659 49.9933 86.0076 50.0576 86.23 50.1667C86.4523 50.2759 86.651 50.4276 86.8145 50.6133C86.9781 50.7991 87.1035 51.0151 87.1834 51.2492C87.2633 51.4833 87.2962 51.7308 87.2803 51.9775L87.0049 56.2445C86.9727 56.7429 86.7435 57.2081 86.3676 57.5378C85.9918 57.8675 85.5001 58.0347 85.0007 58.0026Z" fill="#00E0A1"/>
<path d="M76.0501 59.383C76.0059 59.383 75.9615 59.3816 75.9171 59.3788H75.917L48.4116 57.6106C48.1453 57.5935 47.885 57.5242 47.6456 57.4067C47.4061 57.2893 47.1922 57.1258 47.016 56.9258C46.8398 56.7258 46.7049 56.4931 46.6188 56.241C46.5328 55.989 46.4973 55.7224 46.5145 55.4567L46.9848 48.1684C47.002 47.9027 47.0714 47.6429 47.1892 47.4039C47.3069 47.1649 47.4707 46.9514 47.6711 46.7756C47.8716 46.5998 48.1048 46.4652 48.3573 46.3793C48.6099 46.2934 48.877 46.2581 49.1433 46.2752L76.6487 48.0432C77.1862 48.0784 77.6878 48.3249 78.0435 48.7287C78.3991 49.1325 78.5797 49.6606 78.5457 50.1971L78.0754 57.4855C78.0495 57.8761 77.9112 58.2508 77.6772 58.5649C77.4431 58.8789 77.1232 59.1188 76.7558 59.2558C76.5301 59.3401 76.2911 59.3832 76.0501 59.383Z" fill="#2F2E41"/>
<path d="M44.2976 13.5985C46.2451 11.9269 48.9195 13.4223 51.1529 13.1605C53.2897 12.91 54.9769 10.9972 55.4079 8.965C55.9108 6.59412 54.6777 4.21884 52.8603 2.74063C50.8697 1.12164 48.2298 0.656863 45.7281 0.95639C42.8609 1.29968 40.2386 2.63355 37.8857 4.24693C35.6146 5.75599 33.526 7.52226 31.6618 9.51049C29.9923 11.3505 28.5779 13.5439 28.1263 16.0199C27.7158 18.2701 28.0292 20.7637 29.3621 22.67C30.0689 23.647 31.0161 24.4258 32.1122 24.9311C33.2552 25.4912 34.4744 25.8917 35.5817 26.5249C37.2559 27.4825 38.8831 29.4679 38.3587 31.5341C38.2462 31.9854 38.0243 32.4023 37.7125 32.7479C37.3379 33.163 36.6621 32.6145 37.0377 32.1983C37.6975 31.4674 37.6715 30.4926 37.3199 29.62C36.9018 28.6366 36.1615 27.8241 35.2202 27.3156C34.0611 26.6543 32.7815 26.246 31.5935 25.6436C30.4564 25.0933 29.4694 24.277 28.7164 23.2641C27.2946 21.2921 26.8693 18.7257 27.1918 16.3516C27.5407 13.7825 28.8634 11.4479 30.5214 9.49147C32.3258 7.36236 34.5423 5.56012 36.8066 3.94106C39.2362 2.20379 41.9205 0.735046 44.8908 0.203825C47.4656 -0.25666 50.2565 0.0268436 52.508 1.4272C54.6097 2.73434 56.2213 4.98287 56.3816 7.4954C56.4391 8.63859 56.1904 9.77643 55.661 10.7918C55.1316 11.8072 54.3407 12.6635 53.3696 13.2726C52.3732 13.8677 51.2147 14.1355 50.0576 14.0383C48.8205 13.9593 47.5823 13.5812 46.3374 13.6862C45.774 13.7203 45.2372 13.9368 44.8082 14.3028C44.3827 14.6681 43.8755 13.9608 44.2976 13.5985V13.5985Z" fill="#2F2E41"/>
<path d="M214.654 173H0.345604C0.254111 173 0.166459 172.963 0.101857 172.899C0.0372559 172.834 0.000976562 172.746 0.000976562 172.655C0.000976562 172.564 0.0372559 172.476 0.101857 172.411C0.166459 172.347 0.254111 172.31 0.345604 172.31H214.654C214.746 172.31 214.834 172.346 214.899 172.411C214.964 172.476 215 172.564 215 172.655C215 172.746 214.964 172.834 214.899 172.899C214.834 172.964 214.746 173 214.654 173Z" fill="#3F3D56"/>
</g>
<defs>
<clipPath id="clip0_104_152">
<rect width="215" height="173" fill="white"/>
</clipPath>
</defs>
</svg>
