<svg width="103" height="505" viewBox="0 0 103 505" fill="none" xmlns="http://www.w3.org/2000/svg">
<g clip-path="url(#clip0_119_72)">
<path opacity="0.5" d="M110.091 401.711L110.091 -1.56444C110.091 -1.56444 -25.5321 100.05 37.5909 227.209C76.0909 304.766 -15.4091 468.651 36.0909 544.822C55.3543 573.314 110.091 651.001 110.091 651.001L110.091 401.711Z" fill="#191645"/>
<path d="M108.519 -7.99981L108.519 63.5555L108.519 574.368C108.519 574.368 110.499 488.575 24.7948 409.135C-60.9092 329.695 108.519 219.361 70.0908 83.1752C63.1576 58.6049 108.519 -7.99981 108.519 -7.99981Z" fill="#191645"/>
<g clip-path="url(#clip1_119_72)">
<path d="M71.647 324.483C97.3162 313.733 116.012 300.717 113.406 295.412C110.799 290.106 87.8772 294.519 62.2081 305.269C36.5389 316.019 17.843 329.035 20.4495 334.34C23.056 339.646 45.9779 335.233 71.647 324.483Z" stroke="white" stroke-width="2" stroke-linecap="round" stroke-linejoin="round"/>
<path d="M124.418 317.828C127.029 323.144 108.48 336.085 82.659 346.899C56.8378 357.712 34.0729 362.072 31.4614 356.756" stroke="white" stroke-width="2" stroke-linecap="round" stroke-linejoin="round"/>
<path d="M20.4492 334.34L42.4735 379.173C45.0849 384.488 67.8499 380.129 93.671 369.315C119.492 358.502 138.041 345.56 135.43 340.244L113.405 295.412" stroke="white" stroke-width="2" stroke-linecap="round" stroke-linejoin="round"/>
</g>
</g>
<defs>
<clipPath id="clip0_119_72">
<rect width="103" height="505" fill="white"/>
</clipPath>
<clipPath id="clip1_119_72">
<rect width="134.371" height="85.6285" fill="white" transform="matrix(0.922382 -0.386279 0.440927 0.897543 -2.90918 324.817)"/>
</clipPath>
</defs>
</svg>
