<svg width="352" height="305" viewBox="0 0 352 305" fill="none" xmlns="http://www.w3.org/2000/svg">
<g clip-path="url(#clip0_119_61)">
<rect width="352" height="305" fill="white"/>
<path d="M16.066 28.688C16.066 30.2133 15.626 31.3573 14.746 32.12C13.8807 32.868 12.7 33.242 11.204 33.242H11.028L10.72 35.794C9.78133 35.75 9.312 35.6987 9.312 35.64L9.62 33.154C8.68133 33.066 7.772 32.934 6.892 32.758L6.452 32.67L6.694 30.778C7.85267 30.9393 8.916 31.0493 9.884 31.108L10.478 26.554C8.95267 26.1433 7.87467 25.6373 7.244 25.036C6.61333 24.4347 6.298 23.4887 6.298 22.198C6.298 20.9073 6.72333 19.9247 7.574 19.25C8.43933 18.5753 9.62733 18.238 11.138 18.238H11.534L11.908 15.29H13.316L12.92 18.348L15.736 18.744L15.538 20.636C14.4967 20.5187 13.5433 20.4307 12.678 20.372L12.128 24.618C13.6093 25.0433 14.636 25.5347 15.208 26.092C15.78 26.6493 16.066 27.5147 16.066 28.688ZM8.652 22.198C8.652 22.7407 8.79867 23.1513 9.092 23.43C9.4 23.7087 9.95733 23.98 10.764 24.244L11.27 20.306C9.52467 20.3353 8.652 20.966 8.652 22.198ZM13.69 28.82C13.69 28.3213 13.5507 27.9327 13.272 27.654C13.008 27.3753 12.5313 27.1333 11.842 26.928L11.292 31.152C12.8907 31.0933 13.69 30.316 13.69 28.82ZM28.3765 28.688C28.3765 30.2133 27.9365 31.3573 27.0565 32.12C26.1912 32.868 25.0105 33.242 23.5145 33.242H23.3385L23.0305 35.794C22.0919 35.75 21.6225 35.6987 21.6225 35.64L21.9305 33.154C20.9919 33.066 20.0825 32.934 19.2025 32.758L18.7625 32.67L19.0045 30.778C20.1632 30.9393 21.2265 31.0493 22.1945 31.108L22.7885 26.554C21.2632 26.1433 20.1852 25.6373 19.5545 25.036C18.9239 24.4347 18.6085 23.4887 18.6085 22.198C18.6085 20.9073 19.0339 19.9247 19.8845 19.25C20.7499 18.5753 21.9379 18.238 23.4485 18.238H23.8445L24.2185 15.29H25.6265L25.2305 18.348L28.0465 18.744L27.8485 20.636C26.8072 20.5187 25.8539 20.4307 24.9885 20.372L24.4385 24.618C25.9199 25.0433 26.9465 25.5347 27.5185 26.092C28.0905 26.6493 28.3765 27.5147 28.3765 28.688ZM20.9625 22.198C20.9625 22.7407 21.1092 23.1513 21.4025 23.43C21.7105 23.7087 22.2679 23.98 23.0745 24.244L23.5805 20.306C21.8352 20.3353 20.9625 20.966 20.9625 22.198ZM26.0005 28.82C26.0005 28.3213 25.8612 27.9327 25.5825 27.654C25.3185 27.3753 24.8419 27.1333 24.1525 26.928L23.6025 31.152C25.2012 31.0933 26.0005 30.316 26.0005 28.82ZM40.6871 28.688C40.6871 30.2133 40.2471 31.3573 39.3671 32.12C38.5018 32.868 37.3211 33.242 35.8251 33.242H35.6491L35.3411 35.794C34.4024 35.75 33.9331 35.6987 33.9331 35.64L34.2411 33.154C33.3024 33.066 32.3931 32.934 31.5131 32.758L31.0731 32.67L31.3151 30.778C32.4738 30.9393 33.5371 31.0493 34.5051 31.108L35.0991 26.554C33.5738 26.1433 32.4958 25.6373 31.8651 25.036C31.2344 24.4347 30.9191 23.4887 30.9191 22.198C30.9191 20.9073 31.3444 19.9247 32.1951 19.25C33.0604 18.5753 34.2484 18.238 35.7591 18.238H36.1551L36.5291 15.29H37.9371L37.5411 18.348L40.3571 18.744L40.1591 20.636C39.1178 20.5187 38.1644 20.4307 37.2991 20.372L36.7491 24.618C38.2304 25.0433 39.2571 25.5347 39.8291 26.092C40.4011 26.6493 40.6871 27.5147 40.6871 28.688ZM33.2731 22.198C33.2731 22.7407 33.4198 23.1513 33.7131 23.43C34.0211 23.7087 34.5784 23.98 35.3851 24.244L35.8911 20.306C34.1458 20.3353 33.2731 20.966 33.2731 22.198ZM38.3111 28.82C38.3111 28.3213 38.1718 27.9327 37.8931 27.654C37.6291 27.3753 37.1524 27.1333 36.4631 26.928L35.9131 31.152C37.5118 31.0933 38.3111 30.316 38.3111 28.82Z" fill="#191645"/>
<path d="M25.2029 229H15.8529V226.91L19.4389 223.214C20.5242 222.099 21.2869 221.227 21.7269 220.596C22.1669 219.965 22.3869 219.276 22.3869 218.528C22.3869 217.765 22.1742 217.223 21.7489 216.9C21.3236 216.577 20.6269 216.416 19.6589 216.416C18.7496 216.416 17.7449 216.519 16.6449 216.724L16.0949 216.812L15.9409 214.876C17.3636 214.451 18.8376 214.238 20.3629 214.238C23.3989 214.238 24.9169 215.587 24.9169 218.286C24.9169 219.342 24.6822 220.259 24.2129 221.036C23.7582 221.813 22.9369 222.752 21.7489 223.852L18.6469 226.866H25.2029V229ZM28.7135 216.02C29.6375 214.832 31.0161 214.238 32.8495 214.238C34.6828 214.238 36.0541 214.825 36.9635 215.998C37.8728 217.171 38.3275 219.115 38.3275 221.828C38.3275 224.527 37.8655 226.441 36.9415 227.57C36.0321 228.685 34.6608 229.242 32.8275 229.242C31.0088 229.242 29.6375 228.685 28.7135 227.57C27.8041 226.455 27.3495 224.549 27.3495 221.85C27.3495 219.137 27.8041 217.193 28.7135 216.02ZM35.1155 217.582C34.6608 216.775 33.9055 216.372 32.8495 216.372C31.7935 216.372 31.0308 216.775 30.5615 217.582C30.1068 218.374 29.8795 219.775 29.8795 221.784C29.8795 223.793 30.1141 225.187 30.5835 225.964C31.0675 226.727 31.8228 227.108 32.8495 227.108C33.8908 227.108 34.6388 226.727 35.0935 225.964C35.5628 225.187 35.7975 223.793 35.7975 221.784C35.7975 219.775 35.5701 218.374 35.1155 217.582Z" fill="#191645"/>
<path d="M28.7135 292.02C29.6375 290.832 31.0161 290.238 32.8495 290.238C34.6828 290.238 36.0541 290.825 36.9635 291.998C37.8728 293.171 38.3275 295.115 38.3275 297.828C38.3275 300.527 37.8655 302.441 36.9415 303.57C36.0321 304.685 34.6608 305.242 32.8275 305.242C31.0088 305.242 29.6375 304.685 28.7135 303.57C27.8041 302.455 27.3495 300.549 27.3495 297.85C27.3495 295.137 27.8041 293.193 28.7135 292.02ZM35.1155 293.582C34.6608 292.775 33.9055 292.372 32.8495 292.372C31.7935 292.372 31.0308 292.775 30.5615 293.582C30.1068 294.374 29.8795 295.775 29.8795 297.784C29.8795 299.793 30.1141 301.187 30.5835 301.964C31.0675 302.727 31.8228 303.108 32.8495 303.108C33.8908 303.108 34.6388 302.727 35.0935 301.964C35.5628 301.187 35.7975 299.793 35.7975 297.784C35.7975 295.775 35.5701 294.374 35.1155 293.582Z" fill="#191645"/>
<path d="M25.0269 97.48V99.636H18.2949L17.9209 103.464C18.9182 103.009 19.9009 102.782 20.8689 102.782C23.9782 102.782 25.5329 104.234 25.5329 107.138C25.5329 108.781 25.1002 110.042 24.2349 110.922C23.3842 111.802 22.1742 112.242 20.6049 112.242C19.9449 112.242 19.1969 112.176 18.3609 112.044C17.5249 111.927 16.8576 111.809 16.3589 111.692L15.6109 111.494L15.8749 109.646C17.6056 109.939 19.0869 110.086 20.3189 110.086C21.1696 110.086 21.8296 109.851 22.2989 109.382C22.7682 108.913 23.0029 108.245 23.0029 107.38C23.0029 106.515 22.7976 105.891 22.3869 105.51C21.9762 105.129 21.4409 104.938 20.7809 104.938C19.5929 104.938 18.6249 105.085 17.8769 105.378L17.4809 105.532L15.9409 105.202L16.3369 97.48H25.0269ZM28.7135 99.02C29.6375 97.832 31.0161 97.238 32.8495 97.238C34.6828 97.238 36.0541 97.8247 36.9635 98.998C37.8728 100.171 38.3275 102.115 38.3275 104.828C38.3275 107.527 37.8655 109.441 36.9415 110.57C36.0321 111.685 34.6608 112.242 32.8275 112.242C31.0088 112.242 29.6375 111.685 28.7135 110.57C27.8041 109.455 27.3495 107.549 27.3495 104.85C27.3495 102.137 27.8041 100.193 28.7135 99.02ZM35.1155 100.582C34.6608 99.7753 33.9055 99.372 32.8495 99.372C31.7935 99.372 31.0308 99.7753 30.5615 100.582C30.1068 101.374 29.8795 102.775 29.8795 104.784C29.8795 106.793 30.1141 108.187 30.5835 108.964C31.0675 109.727 31.8228 110.108 32.8495 110.108C33.8908 110.108 34.6388 109.727 35.0935 108.964C35.5628 108.187 35.7975 106.793 35.7975 104.784C35.7975 102.775 35.5701 101.374 35.1155 100.582Z" fill="#191645"/>
<path d="M49 36V305H357" stroke="#191645" stroke-width="2"/>
<path d="M50.5 302.5C50.5 302.5 76 238 100 170.5C107.822 148.501 114.864 205.142 132 221C144.806 232.851 154 273 170 244.5C186 216 209 147 228 107.5C247 67.9998 266 83 312 133.5" stroke="#00E0A1" stroke-width="5"/>
</g>
<defs>
<clipPath id="clip0_119_61">
<rect width="352" height="305" fill="white"/>
</clipPath>
</defs>
</svg>
