<svg width="186" height="117" viewBox="0 0 186 117" fill="none" xmlns="http://www.w3.org/2000/svg">
<path d="M159.683 48.8522C162.246 51.3247 165.107 51.7192 168.264 50.0358C166.939 48.0835 166.623 45.96 166.976 43.7231H160.827C161.099 45.6888 161.026 47.5191 159.683 48.8522Z" fill="#FFB8B8"/>
<path d="M169.837 113.557L173.126 111.979L174.556 95.2764V86.465L166.977 86.3335L169.122 95.1449L169.837 113.557Z" fill="#FFB8B8"/>
<path d="M160.302 113.557L157.013 111.979L155.583 95.2764V86.465L163.162 86.3335L161.017 95.1449L160.302 113.557Z" fill="#FFB8B8"/>
<path d="M155.249 88.3061L163.258 87.6485L164.545 80.9413L166.118 87.517L174.842 86.991C175.033 83.7954 174.549 80.5066 173.412 77.1275L154.248 76.7329L155.249 88.3061Z" fill="#2F2E41"/>
<path d="M146.925 63.1169L137.291 56.2951C137.191 56.2243 137.081 56.1663 136.965 56.1225L135.564 55.5987C134.44 55.1779 132.298 53.7784 133.342 52.3373C134.185 51.1754 137.409 53.2568 137.805 54.0279C137.931 54.2705 138.136 54.4705 138.393 54.5992L140.351 55.5858C140.398 55.6098 140.447 55.6312 140.498 55.65L147.951 58.4282C148.158 58.5052 148.382 58.5357 148.604 58.5173C148.826 58.4989 149.04 58.432 149.228 58.3222L150.579 57.5343C150.772 57.4222 150.991 57.3548 151.218 57.3381C151.445 57.3214 151.673 57.3557 151.882 57.4382C152.091 57.5207 152.275 57.6489 152.419 57.8116C152.562 57.9743 152.66 58.1666 152.704 58.372L153.151 60.4448C153.215 60.7433 153.162 61.053 153.002 61.3192C152.842 61.5854 152.585 61.7909 152.275 61.8993L148.279 63.3C148.055 63.3785 147.813 63.4028 147.576 63.3708C147.339 63.3387 147.115 63.2513 146.925 63.1169V63.1169Z" fill="#FFB8B8"/>
<path d="M148.714 58.1464C151.382 57.4887 151.102 60.9154 153.137 62.6003L157.138 59.6956L154.82 49.3779C154.198 49.5413 153.626 49.8354 153.149 50.237C152.673 50.6386 152.304 51.1366 152.072 51.6918L148.714 58.1464Z" fill="#00E0A1"/>
<path d="M153.676 77.3905H173.841C170.578 69.3032 170.896 60.9855 173.674 52.5094C173.721 52.3687 173.713 52.2174 173.651 52.0816C173.59 51.9459 173.478 51.8342 173.337 51.7658L167.549 48.9836C165.277 50.343 162.835 49.9253 160.255 48.063L153.962 49.6411C155.675 59.102 155.724 68.3686 153.676 77.3905Z" fill="#00E0A1"/>
<path d="M158.719 116.645L150.315 116.973C149.949 116.987 149.59 116.876 149.308 116.662C149.025 116.448 148.839 116.145 148.785 115.812V115.812C148.73 115.475 148.814 115.132 149.02 114.85C149.226 114.567 149.54 114.366 149.899 114.285L151.324 113.964L156.927 110.978C157.756 111.768 158.899 112.436 160.297 113.005L160.313 115.105C160.316 115.501 160.152 115.884 159.854 116.171C159.557 116.458 159.15 116.628 158.719 116.645V116.645Z" fill="#2F2E41"/>
<path d="M185.917 117H0.0673828V116.578H186L185.917 117Z" fill="#3F3D56"/>
<path d="M171.351 116.528L179.754 116.856C180.12 116.87 180.479 116.759 180.762 116.545C181.044 116.33 181.23 116.028 181.284 115.695V115.695C181.339 115.358 181.255 115.015 181.049 114.733C180.843 114.45 180.53 114.249 180.17 114.168L178.745 113.846L173.143 110.86C172.313 111.651 171.17 112.319 169.773 112.888L169.756 114.987C169.753 115.384 169.918 115.767 170.215 116.054C170.513 116.341 170.92 116.511 171.351 116.528V116.528Z" fill="#2F2E41"/>
<path d="M163.258 46.0902C165.786 46.0902 167.835 44.206 167.835 41.8818C167.835 39.5575 165.786 37.6733 163.258 37.6733C160.731 37.6733 158.682 39.5575 158.682 41.8818C158.682 44.206 160.731 46.0902 163.258 46.0902Z" fill="#FFB8B8"/>
<path d="M170.409 76.0752L168.897 78.7786C168.763 79.0172 168.686 79.279 168.671 79.5469C168.655 79.8148 168.702 80.0827 168.807 80.3329C168.912 80.5832 169.073 80.8102 169.281 80.9989C169.488 81.1877 169.736 81.334 170.009 81.4282V81.4282C170.299 81.5279 170.608 81.5668 170.916 81.542C171.223 81.5172 171.521 81.4294 171.787 81.2849C172.053 81.1405 172.28 80.9432 172.452 80.7074C172.624 80.4716 172.737 80.2034 172.781 79.9225L173.412 75.9437L175.7 65.9487L175.557 60.9512H170.981C172.542 64.6682 171.767 70.1508 170.409 76.0752Z" fill="#FFB8B8"/>
<path d="M170.266 61.4771H176.416L175.523 55.2752C175.402 54.4341 175.054 53.6343 174.51 52.9488C173.967 52.2632 173.245 51.7138 172.411 51.3506L170.266 61.4771Z" fill="#00E0A1"/>
<path d="M168.123 39.5636C168.215 39.0015 168.177 38.4279 168.011 37.8802C167.845 37.3326 167.556 36.8233 167.162 36.3853C166.381 35.5357 165.072 34.8403 162.901 35.1683C158.163 35.8841 156.797 39.5109 157.261 40.4229C157.725 41.335 159.148 43.4493 159.148 43.4493C159.148 43.4493 158.104 41.3564 159.237 40.9303C160.37 40.5043 164.756 38.8261 166.286 39.5821C166.72 39.7822 167.088 40.0843 167.353 40.4576C167.618 40.8309 167.77 41.2622 167.795 41.7075L168.123 39.5636Z" fill="#2F2E41"/>
<path d="M89.7934 22.0488L87.9534 22.9074C85.834 19.0698 83.0262 15.5883 79.648 12.6091C63.0582 -2.05718 36.586 -1.57768 20.637 13.678C4.68811 28.9336 5.20955 53.2768 21.7994 67.9431C24.9569 70.7401 28.5743 73.0618 32.5182 74.8227L31.6181 76.5299C25.3668 73.7387 19.9275 69.6196 15.7495 64.5131C11.5716 59.4065 8.77502 53.4591 7.59081 47.1622C6.40661 40.8653 6.86878 34.3996 8.93915 28.2994C11.0095 22.1993 14.6286 16.6396 19.4975 12.0799C24.3664 7.52026 30.3452 4.09138 36.9401 2.07662C43.5349 0.061856 50.5565 -0.480958 57.4245 0.493024C64.2926 1.46701 70.8101 3.92983 76.4385 7.678C82.0668 11.4262 86.6446 16.3521 89.7934 22.0488V22.0488Z" fill="#E6E6E6"/>
<path d="M27.5423 57.3481C24.8358 59.9369 23.3586 63.4084 23.4355 66.9988C23.5124 70.5892 25.1372 74.0045 27.9524 76.4933C30.7676 78.9821 34.5427 80.3406 38.4471 80.2699C42.3516 80.1991 46.0655 78.705 48.772 76.1162L51.307 73.6915L30.0773 54.9233L27.5423 57.3481Z" fill="#E6E6E6"/>
<path d="M28.6549 53.5462C28.0524 54.1238 27.7237 54.8975 27.7409 55.6976C27.758 56.4978 28.1196 57.259 28.7463 57.8143L48.2181 75.0283C48.8457 75.5832 49.6873 75.886 50.5577 75.8702C51.4281 75.8545 52.2561 75.5214 52.8594 74.9443C53.4628 74.3671 53.7921 73.5933 53.775 72.7928C53.7578 71.9924 53.3956 71.2311 52.768 70.6762L33.2962 53.4622C32.6681 52.9082 31.8267 52.6059 30.9566 52.6217C30.0865 52.6374 29.2587 52.9699 28.6549 53.5462Z" fill="#535461"/>
<path d="M87.0559 39.4961L89.5908 37.0714C92.2973 34.4825 93.7745 31.0111 93.6976 27.4207C93.6207 23.8302 91.996 20.415 89.1807 17.9261C87.7868 16.6938 86.1425 15.726 84.3418 15.0781C82.5411 14.4301 80.6193 14.1146 78.686 14.1496C74.7816 14.2203 71.0676 15.7144 68.3611 18.3033L65.8262 20.728L87.0559 39.4961Z" fill="#E6E6E6"/>
<path d="M64.274 19.4754C63.6716 20.053 63.3429 20.8267 63.36 21.6268C63.3772 22.427 63.7387 23.1882 64.3654 23.7435L83.8373 40.9575C84.465 41.5117 85.3063 41.814 86.1763 41.798C87.0463 41.7819 87.8738 41.4489 88.4769 40.872C89.08 40.2951 89.4093 39.5217 89.3925 38.7216C89.3756 37.9216 89.014 37.1604 88.3871 36.6054L68.9153 19.3914C68.2872 18.8374 67.4459 18.5351 66.5758 18.5509C65.7056 18.5666 64.8779 18.8991 64.274 19.4754V19.4754Z" fill="#535461"/>
<path d="M72.4878 59.2564V57.8578C72.4878 57.8578 79.1247 54.4248 84.5171 57.8578V59.1293L72.4878 59.2564Z" fill="#535461"/>
<path d="M132.911 59.2564V57.8578C132.911 57.8578 139.548 54.4248 144.94 57.8578V59.1293L132.911 59.2564Z" fill="#535461"/>
<path d="M92.3985 59.1296H85.8999C85.8999 59.1296 84.2407 57.3496 78.7099 57.4767C73.1792 57.6039 72.0731 59.1296 72.0731 59.1296C72.0731 59.1296 66.6115 62.4991 65.3671 66.6949C65.3671 66.6949 58.6611 85.195 58.5228 99.6898C58.3846 114.185 64.4683 116.219 67.6485 116.6C70.8287 116.982 76.4976 116.473 82.0284 103.631L84.3789 96.1297C84.3789 96.1297 84.7937 91.6795 89.7714 94.4768C94.749 97.274 99.1736 92.951 99.1736 92.951H117.84C117.84 92.951 124.062 96.5111 129.731 93.7139C129.731 93.7139 131.943 91.0438 134.017 100.071C134.017 100.071 140.377 118.635 150.194 116.728C160.011 114.82 158.905 99.3084 158.905 99.3084C158.905 99.3084 157.592 75.5953 152.199 67.2035C152.199 67.2035 147.014 58.4939 143.558 58.1125C143.558 58.1125 136.091 56.841 133.187 57.9853L131.528 59.2568L92.3985 59.1296Z" fill="#E6E6E6"/>
<path d="M77.3272 82.6516C83.9708 82.6516 89.3565 77.699 89.3565 71.5897C89.3565 65.4804 83.9708 60.5278 77.3272 60.5278C70.6836 60.5278 65.2979 65.4804 65.2979 71.5897C65.2979 77.699 70.6836 82.6516 77.3272 82.6516Z" fill="#535461"/>
<path d="M140.101 82.6516C146.745 82.6516 152.13 77.699 152.13 71.5897C152.13 65.4804 146.745 60.5278 140.101 60.5278C133.457 60.5278 128.072 65.4804 128.072 71.5897C128.072 77.699 133.457 82.6516 140.101 82.6516Z" fill="#535461"/>
<path d="M79.4233 69.1231L77.8194 70.4276C77.6836 70.5375 77.5089 70.5982 77.3279 70.5982C77.1469 70.5982 76.9722 70.5375 76.8364 70.4276L75.2297 69.1231C75.1511 69.0594 75.0881 68.9812 75.0447 68.8935C75.0013 68.8059 74.9786 68.7108 74.978 68.6145V65.0251C74.9784 64.8439 75.0569 64.6702 75.1964 64.5422C75.3359 64.4142 75.5249 64.3423 75.7219 64.3423H78.9366C79.1336 64.342 79.3226 64.4136 79.4621 64.5414C79.6016 64.6692 79.6801 64.8427 79.6805 65.0238V68.6119C79.6796 68.709 79.6563 68.8049 79.6119 68.893C79.5676 68.9811 79.5033 69.0596 79.4233 69.1231Z" fill="#E6E6E6"/>
<path d="M79.4233 74.0554L77.8194 72.7522C77.6836 72.6422 77.5089 72.5815 77.3279 72.5815C77.1469 72.5815 76.9722 72.6422 76.8364 72.7522L75.2297 74.0567C75.1511 74.1204 75.0881 74.1986 75.0447 74.2862C75.0013 74.3739 74.9786 74.469 74.978 74.5653V78.1509C74.9777 78.332 75.0555 78.5058 75.1945 78.634C75.3335 78.7623 75.5222 78.8346 75.7191 78.8349H78.9367C79.1336 78.8353 79.3226 78.7636 79.4621 78.6358C79.6016 78.508 79.6802 78.3345 79.6805 78.1534V74.5666C79.6797 74.4695 79.6563 74.3736 79.6119 74.2855C79.5676 74.1973 79.5033 74.1189 79.4233 74.0554V74.0554Z" fill="#E6E6E6"/>
<path d="M74.6464 73.52L76.065 72.0426C76.1846 71.9177 76.2506 71.757 76.2506 71.5906C76.2506 71.4242 76.1846 71.2635 76.065 71.1386L74.6464 69.6611C74.5771 69.5889 74.492 69.531 74.3967 69.4911C74.3014 69.4512 74.198 69.4303 74.0933 69.4297H70.1942C69.9971 69.43 69.8083 69.5022 69.6691 69.6305C69.5298 69.7587 69.4517 69.9325 69.4517 70.1137V73.0699C69.4513 73.251 69.5292 73.4248 69.6682 73.5531C69.8071 73.6814 69.9959 73.7537 70.1928 73.754H74.0947C74.1994 73.753 74.3027 73.7316 74.3978 73.6913C74.4928 73.651 74.5776 73.5926 74.6464 73.52V73.52Z" fill="#E6E6E6"/>
<path d="M80.0096 73.5198L78.5937 72.0411C78.4739 71.9163 78.4077 71.7556 78.4077 71.5891C78.4077 71.4226 78.4739 71.2619 78.5937 71.1371L80.0123 69.6596C80.0816 69.5874 80.1666 69.5294 80.262 69.4895C80.3573 69.4496 80.4607 69.4287 80.5654 69.4282H84.4646C84.6615 69.4279 84.8505 69.4995 84.99 69.6273C85.1295 69.7551 85.2081 69.9286 85.2085 70.1097V73.0685C85.2088 73.2496 85.1309 73.4234 84.992 73.5516C84.853 73.6799 84.6643 73.7522 84.4673 73.7525H80.5668C80.4613 73.7524 80.357 73.7315 80.2609 73.6914C80.1648 73.6513 80.0791 73.5928 80.0096 73.5198V73.5198Z" fill="#E6E6E6"/>
<path d="M93.643 91.6793C98.4539 91.6793 102.354 88.093 102.354 83.669C102.354 79.245 98.4539 75.6587 93.643 75.6587C88.8321 75.6587 84.9321 79.245 84.9321 83.669C84.9321 88.093 88.8321 91.6793 93.643 91.6793Z" fill="#535461"/>
<path d="M123.786 91.6793C128.596 91.6793 132.496 88.093 132.496 83.669C132.496 79.245 128.596 75.6587 123.786 75.6587C118.975 75.6587 115.075 79.245 115.075 83.669C115.075 88.093 118.975 91.6793 123.786 91.6793Z" fill="#535461"/>
<path d="M93.6432 89.009C96.8505 89.009 99.4505 86.6181 99.4505 83.6688C99.4505 80.7195 96.8505 78.3286 93.6432 78.3286C90.4359 78.3286 87.8359 80.7195 87.8359 83.6688C87.8359 86.6181 90.4359 89.009 93.6432 89.009Z" fill="#E6E6E6"/>
<path d="M93.6431 87.356C92.85 87.356 92.0748 87.1398 91.4154 86.7346C90.756 86.3294 90.242 85.7536 89.9385 85.0798C89.635 84.406 89.5556 83.6646 89.7103 82.9494C89.8651 82.2341 90.247 81.5771 90.8077 81.0614C91.3685 80.5458 92.083 80.1946 92.8608 80.0523C93.6386 79.91 94.4449 79.983 95.1775 80.2621C95.9102 80.5412 96.5365 81.0138 96.9771 81.6202C97.4177 82.2266 97.6528 82.9395 97.6528 83.6687C97.6516 84.6463 97.2288 85.5836 96.4771 86.2748C95.7254 86.9661 94.7062 87.3549 93.6431 87.356V87.356ZM93.6431 80.2357C92.9047 80.2357 92.1829 80.4371 91.569 80.8143C90.9551 81.1915 90.4766 81.7277 90.194 82.355C89.9115 82.9823 89.8375 83.6725 89.9816 84.3385C90.1256 85.0044 90.4812 85.6161 91.0033 86.0962C91.5254 86.5763 92.1906 86.9033 92.9148 87.0358C93.6389 87.1682 94.3896 87.1002 95.0717 86.8404C95.7539 86.5806 96.3369 86.1406 96.7471 85.576C97.1574 85.0115 97.3763 84.3477 97.3763 83.6687C97.3752 82.7586 96.9815 81.886 96.2816 81.2424C95.5818 80.5988 94.6328 80.2368 93.6431 80.2357V80.2357Z" fill="#535461"/>
<path d="M123.785 89.009C126.993 89.009 129.593 86.6181 129.593 83.6688C129.593 80.7195 126.993 78.3286 123.785 78.3286C120.578 78.3286 117.978 80.7195 117.978 83.6688C117.978 86.6181 120.578 89.009 123.785 89.009Z" fill="#E6E6E6"/>
<path d="M123.786 87.356C122.993 87.356 122.217 87.1398 121.558 86.7346C120.899 86.3294 120.385 85.7536 120.081 85.0798C119.778 84.406 119.698 83.6646 119.853 82.9494C120.008 82.2341 120.39 81.5771 120.95 81.0614C121.511 80.5458 122.226 80.1946 123.003 80.0523C123.781 79.91 124.587 79.983 125.32 80.2621C126.053 80.5412 126.679 81.0138 127.12 81.6202C127.56 82.2266 127.795 82.9395 127.795 83.6687C127.794 84.6463 127.371 85.5835 126.62 86.2748C125.868 86.9661 124.849 87.3549 123.786 87.356ZM123.786 80.2357C123.047 80.2357 122.326 80.4371 121.712 80.8143C121.098 81.1915 120.619 81.7277 120.337 82.355C120.054 82.9823 119.98 83.6725 120.124 84.3385C120.268 85.0044 120.624 85.6161 121.146 86.0962C121.668 86.5763 122.333 86.9033 123.057 87.0358C123.782 87.1682 124.532 87.1002 125.214 86.8404C125.896 86.5806 126.48 86.1406 126.89 85.576C127.3 85.0115 127.519 84.3477 127.519 83.6687C127.518 82.7586 127.124 81.886 126.424 81.2424C125.724 80.5988 124.775 80.2368 123.786 80.2357V80.2357Z" fill="#535461"/>
<path d="M108.991 86.8478C110.365 86.8478 111.48 85.8232 111.48 84.5592C111.48 83.2952 110.365 82.2705 108.991 82.2705C107.616 82.2705 106.502 83.2952 106.502 84.5592C106.502 85.8232 107.616 86.8478 108.991 86.8478Z" fill="#535461"/>
<path d="M105.187 77.4198C105.487 77.4198 105.73 77.1961 105.73 76.9201C105.73 76.6441 105.487 76.4204 105.187 76.4204C104.887 76.4204 104.644 76.6441 104.644 76.9201C104.644 77.1961 104.887 77.4198 105.187 77.4198Z" fill="#535461"/>
<path d="M107.222 77.4198C107.522 77.4198 107.765 77.1961 107.765 76.9201C107.765 76.6441 107.522 76.4204 107.222 76.4204C106.922 76.4204 106.679 76.6441 106.679 76.9201C106.679 77.1961 106.922 77.4198 107.222 77.4198Z" fill="#535461"/>
<path d="M106.951 79.7909C107.251 79.7909 107.494 79.5672 107.494 79.2912C107.494 79.0152 107.251 78.7915 106.951 78.7915C106.651 78.7915 106.408 79.0152 106.408 79.2912C106.408 79.5672 106.651 79.7909 106.951 79.7909Z" fill="#535461"/>
<path d="M108.852 79.8546C109.158 79.8546 109.405 79.6269 109.405 79.346C109.405 79.0651 109.158 78.8374 108.852 78.8374C108.547 78.8374 108.299 79.0651 108.299 79.346C108.299 79.6269 108.547 79.8546 108.852 79.8546Z" fill="#535461"/>
<path d="M110.751 79.7909C111.051 79.7909 111.294 79.5672 111.294 79.2912C111.294 79.0152 111.051 78.7915 110.751 78.7915C110.451 78.7915 110.208 79.0152 110.208 79.2912C110.208 79.5672 110.451 79.7909 110.751 79.7909Z" fill="#535461"/>
<path d="M106.137 78.6683C106.437 78.6683 106.68 78.4446 106.68 78.1686C106.68 77.8927 106.437 77.6689 106.137 77.6689C105.837 77.6689 105.593 77.8927 105.593 78.1686C105.593 78.4446 105.837 78.6683 106.137 78.6683Z" fill="#535461"/>
<path d="M107.885 78.7101C108.19 78.7101 108.438 78.4823 108.438 78.2015C108.438 77.9206 108.19 77.6929 107.885 77.6929C107.579 77.6929 107.332 77.9206 107.332 78.2015C107.332 78.4823 107.579 78.7101 107.885 78.7101Z" fill="#535461"/>
<path d="M109.682 78.7101C109.987 78.7101 110.235 78.4823 110.235 78.2015C110.235 77.9206 109.987 77.6929 109.682 77.6929C109.377 77.6929 109.129 77.9206 109.129 78.2015C109.129 78.4823 109.377 78.7101 109.682 78.7101Z" fill="#535461"/>
<path d="M111.565 78.6683C111.865 78.6683 112.109 78.4446 112.109 78.1686C112.109 77.8927 111.865 77.6689 111.565 77.6689C111.265 77.6689 111.022 77.8927 111.022 78.1686C111.022 78.4446 111.265 78.6683 111.565 78.6683Z" fill="#535461"/>
<path d="M108.852 77.4386C109.158 77.4386 109.405 77.2109 109.405 76.93C109.405 76.6491 109.158 76.4214 108.852 76.4214C108.547 76.4214 108.299 76.6491 108.299 76.93C108.299 77.2109 108.547 77.4386 108.852 77.4386Z" fill="#535461"/>
<path d="M110.788 77.4386C111.094 77.4386 111.341 77.2109 111.341 76.93C111.341 76.6491 111.094 76.4214 110.788 76.4214C110.483 76.4214 110.235 76.6491 110.235 76.93C110.235 77.2109 110.483 77.4386 110.788 77.4386Z" fill="#535461"/>
<path d="M112.38 77.4198C112.68 77.4198 112.923 77.1961 112.923 76.9201C112.923 76.6441 112.68 76.4204 112.38 76.4204C112.08 76.4204 111.836 76.6441 111.836 76.9201C111.836 77.1961 112.08 77.4198 112.38 77.4198Z" fill="#535461"/>
<path d="M88.3197 60.2129C88.0639 60.2131 87.8187 60.3067 87.6378 60.473C87.457 60.6393 87.3553 60.8648 87.355 61.1V63.7702C87.3553 64.0054 87.457 64.2309 87.6378 64.3972C87.8187 64.5635 88.0639 64.657 88.3197 64.6573H89.011C89.2668 64.657 89.512 64.5635 89.6929 64.3972C89.8737 64.2309 89.9754 64.0054 89.9757 63.7702V61.1C89.9754 60.8648 89.8737 60.6393 89.6929 60.473C89.512 60.3067 89.2668 60.2131 89.011 60.2129H88.3197Z" fill="#535461"/>
<path d="M128.694 60.2129C128.438 60.2131 128.193 60.3067 128.012 60.473C127.831 60.6393 127.729 60.8648 127.729 61.1V63.7702C127.729 64.0054 127.831 64.2309 128.012 64.3972C128.193 64.5635 128.438 64.657 128.694 64.6573H129.385C129.641 64.657 129.886 64.5635 130.067 64.3972C130.248 64.2309 130.349 64.0054 130.35 63.7702V61.1C130.349 60.8648 130.248 60.6393 130.067 60.473C129.886 60.3067 129.641 60.2131 129.385 60.2129H128.694Z" fill="#535461"/>
<path d="M140.239 67.9024C142.072 67.9024 143.558 66.5362 143.558 64.8509C143.558 63.1655 142.072 61.7993 140.239 61.7993C138.407 61.7993 136.921 63.1655 136.921 64.8509C136.921 66.5362 138.407 67.9024 140.239 67.9024Z" fill="#E6E6E6"/>
<path d="M133.188 74.3873C135.02 74.3873 136.506 73.021 136.506 71.3357C136.506 69.6504 135.02 68.2842 133.188 68.2842C131.355 68.2842 129.869 69.6504 129.869 71.3357C129.869 73.021 131.355 74.3873 133.188 74.3873Z" fill="#E6E6E6"/>
<path d="M147.567 74.0059C149.4 74.0059 150.886 72.6397 150.886 70.9544C150.886 69.2691 149.4 67.9028 147.567 67.9028C145.735 67.9028 144.249 69.2691 144.249 70.9544C144.249 72.6397 145.735 74.0059 147.567 74.0059Z" fill="#E6E6E6"/>
<path d="M140.793 80.7447C142.625 80.7447 144.111 79.3785 144.111 77.6931C144.111 76.0078 142.625 74.6416 140.793 74.6416C138.96 74.6416 137.474 76.0078 137.474 77.6931C137.474 79.3785 138.96 80.7447 140.793 80.7447Z" fill="#E6E6E6"/>
<path d="M94.5761 58.4331C93.8346 58.4339 93.1237 58.7051 92.5994 59.1872C92.0751 59.6694 91.7801 60.3231 91.7793 61.005V72.3846C91.7801 73.0665 92.0751 73.7202 92.5994 74.2023C93.1237 74.6845 93.8346 74.9557 94.5761 74.9565H122.99C123.732 74.9557 124.442 74.6845 124.967 74.2023C125.491 73.7202 125.786 73.0665 125.787 72.3846V61.005C125.786 60.3231 125.491 59.6694 124.967 59.1872C124.442 58.7051 123.732 58.4339 122.99 58.4331H94.5761Z" fill="#535461"/>
<path d="M142.494 66.2498H137.994L140.166 62.8252L142.494 66.2498ZM138.475 65.9955H141.995L140.174 63.317L138.475 65.9955Z" fill="#535461"/>
<path d="M135.054 72.8616H131.321V69.8101H135.054V72.8616ZM131.597 72.6073H134.778V70.0644H131.597V72.6073Z" fill="#535461"/>
<path d="M147.568 72.8613C147.157 72.8613 146.756 72.7494 146.415 72.5399C146.074 72.3303 145.809 72.0324 145.652 71.6839C145.495 71.3354 145.453 70.952 145.534 70.582C145.614 70.212 145.811 69.8722 146.101 69.6055C146.391 69.3388 146.761 69.1571 147.163 69.0835C147.565 69.0099 147.982 69.0477 148.361 69.192C148.74 69.3364 149.064 69.5809 149.292 69.8945C149.52 70.2081 149.642 70.5769 149.642 70.9541C149.641 71.4597 149.422 71.9445 149.034 72.3021C148.645 72.6596 148.118 72.8607 147.568 72.8613ZM147.568 69.3012C147.212 69.3012 146.865 69.3981 146.569 69.5797C146.273 69.7613 146.043 70.0195 145.907 70.3215C145.771 70.6236 145.735 70.9559 145.805 71.2766C145.874 71.5972 146.045 71.8917 146.297 72.1229C146.548 72.354 146.868 72.5115 147.217 72.5752C147.566 72.639 147.927 72.6063 148.256 72.4812C148.584 72.3561 148.865 72.1442 149.062 71.8724C149.26 71.6006 149.365 71.281 149.365 70.9541C149.365 70.5158 149.175 70.0957 148.838 69.7858C148.501 69.476 148.044 69.3016 147.568 69.3012Z" fill="#535461"/>
<path d="M139.3 76.1727L139.104 76.3525L142.216 79.2134L142.411 79.0336L139.3 76.1727Z" fill="#535461"/>
<path d="M142.287 76.1706L139.107 78.9683L139.298 79.152L142.478 76.3544L142.287 76.1706Z" fill="#535461"/>
<path d="M29.3908 29.3789C21.8414 31.2929 13.5745 32.7336 10.6123 30.4985C12.2341 28.0156 13.1695 25.5684 13.2489 23.1657C13.2668 22.0664 13.751 21.0169 14.5983 20.2412C15.1592 19.7429 15.8362 19.3687 16.578 19.147C17.3197 18.9254 18.1067 18.8621 18.879 18.962L20.8383 19.2149C20.9042 19.2234 20.9698 19.233 21.0351 19.2438C21.9755 19.4077 22.8365 19.8382 23.4973 20.475C24.158 21.1118 24.5853 21.9229 24.7191 22.7944C25.1319 25.3998 26.52 27.6553 29.3908 29.3789Z" fill="#2F2E41"/>
<path d="M36.6733 54.0965L39.6082 54.653C39.8324 54.6955 40.0435 54.7833 40.2261 54.9102C40.4087 55.0371 40.5583 55.1998 40.6641 55.3864C40.7698 55.5731 40.829 55.7791 40.8374 55.9894C40.8458 56.1998 40.8031 56.4092 40.7125 56.6025V56.6025C40.625 56.7892 40.4947 56.9565 40.3306 57.0929C40.1666 57.2293 39.9725 57.3316 39.7616 57.3929C39.5507 57.4542 39.3279 57.4731 39.1084 57.4482C38.8889 57.4233 38.6777 57.3553 38.4893 57.2487L33.9999 54.7096L26.3745 38.2254L30.3241 37.1748L36.6733 54.0965Z" fill="#A0616A"/>
<path d="M15.7662 75.7266L13.5439 76.3209L11.8618 73.1263L13.5724 72.3066L15.7662 75.7266Z" fill="#A0616A"/>
<path d="M14.6368 89.4143L11.9102 88.7505L12.337 84.4429L14.6835 84.5757L14.6368 89.4143Z" fill="#A0616A"/>
<path d="M14.9213 72.7406L12.0335 74.4882L0.926524 62.9353C0.685603 62.6847 0.507695 62.3883 0.405458 62.0673C0.303221 61.7463 0.279169 61.4086 0.335009 61.078C0.390848 60.7475 0.525209 60.4324 0.728533 60.155C0.931857 59.8777 1.19915 59.6449 1.51139 59.4734L15.3479 51.8706L17.4671 57.4688L10.2624 63.6862L14.9213 72.7406Z" fill="#2F2E41"/>
<path d="M17.3531 78.7879C17.3459 78.7965 17.3387 78.8052 17.3314 78.8138C17.1468 79.8076 16.8227 80.714 16.0987 81.3703C15.8841 81.8154 15.4987 82.1722 15.0162 82.3726C14.5336 82.573 13.9877 82.603 13.4827 82.4567V82.4567C13.0064 82.3188 12.597 82.033 12.3245 81.6482C12.0521 81.2634 11.9334 80.8035 11.9889 80.3472L12.5286 75.9117C13.823 75.638 14.8103 74.9611 15.31 73.644L16.5681 74.432C16.9404 74.6634 17.2575 74.962 17.5001 75.3098C17.7427 75.6575 17.9058 76.0471 17.9792 76.4547C18.0527 76.8623 18.0351 77.2794 17.9274 77.6806C17.8198 78.0817 17.6244 78.4585 17.3531 78.7879V78.7879Z" fill="#2F2E41"/>
<path d="M18.7222 28.4286C21.177 28.4286 23.167 26.5987 23.167 24.3413C23.167 22.0839 21.177 20.2539 18.7222 20.2539C16.2674 20.2539 14.2773 22.0839 14.2773 24.3413C14.2773 26.5987 16.2674 28.4286 18.7222 28.4286Z" fill="#A0616A"/>
<path d="M22.5716 30.8754L15.5643 36.2121L15.0186 34.0154L16.2416 32.3009C16.5811 30.6188 16.3619 28.7639 15.7787 26.7964L20.3504 26.8002C20.5478 28.3902 21.2209 29.7773 22.5716 30.8754Z" fill="#A0616A"/>
<path d="M24.5444 44.8739L15.0846 47.5237L14.3486 44.4298C12.5758 42.2409 11.8052 40.243 12.965 38.613L12.3813 36.1593C14.0556 34.9471 15.3722 33.7068 16.0952 32.42L21.9155 30.3286L26.1942 30.5707L27.4577 34.4643L24.5444 44.8739Z" fill="#00E0A1"/>
<path d="M31.265 37.6101C29.2485 37.5904 27.2751 38.1465 25.6167 39.2015L26.1942 30.5708C26.7803 30.6428 27.336 30.8539 27.8066 31.1833C28.2771 31.5127 28.6463 31.949 28.8778 32.4494L31.265 37.6101Z" fill="#00E0A1"/>
<path d="M14.8917 85.6064L11.8892 84.9268L12.3311 61.4662L16.3629 57.4061L15.4604 52.2589L14.8764 46.4927L24.7248 44.2471C28.0536 49.8052 30.0657 54.8587 27.1287 58.0152L14.8917 85.6064Z" fill="#2F2E41"/>
<path d="M14.202 93.5276C14.1886 93.5325 14.1751 93.5373 14.1616 93.5421C13.2897 94.473 12.3318 95.2321 11.1275 95.4989C10.5992 95.8397 9.95293 95.9895 9.31213 95.9199C8.67133 95.8503 8.08087 95.566 7.65348 95.1215V95.1215C7.25042 94.7023 7.01827 94.1673 6.99676 93.608C6.97525 93.0488 7.1657 92.5 7.53554 92.0556L11.1303 87.7363C12.6688 88.1987 14.1623 88.0624 15.5841 86.9761L16.3592 88.5259C16.5898 88.9826 16.7168 89.4777 16.7325 89.981C16.7481 90.4843 16.6521 90.9853 16.4503 91.4533C16.2484 91.9214 15.9449 92.3467 15.5584 92.7033C15.1719 93.06 14.7103 93.3404 14.202 93.5276V93.5276Z" fill="#2F2E41"/>
<path d="M3.23385 56.9185L0.598421 58.9934C0.379724 59.1656 0.211836 59.3858 0.110323 59.6335C0.0088094 59.8813 -0.023045 60.1486 0.0177117 60.4107C0.0584684 60.6728 0.170518 60.9211 0.343473 61.1328C0.516428 61.3444 0.74469 61.5125 1.0071 61.6214V61.6214C1.40214 61.7854 1.85014 61.8053 2.26054 61.6772C2.67094 61.5491 3.01313 61.2824 3.21792 60.9311L5.12371 57.6624L13.8636 42.9959L10.5765 42.4277L3.23385 56.9185Z" fill="#A0616A"/>
<path d="M14.39 43.4079C12.6829 42.934 11.0839 42.655 9.84375 43.0233C10.1037 40.0651 10.6395 37.4225 12.3812 36.1597L14.8571 36.4272L14.39 43.4079Z" fill="#00E0A1"/>
<path d="M23.6844 23.3939L14.1777 22.856L14.2947 21.1076C17.6133 19.0499 20.7822 19.2292 23.8014 21.6455L23.6844 23.3939Z" fill="#2F2E41"/>
</svg>
